<svg id="eX1KjDreOmT1" xmlns="http://www.w3.org/2000/svg" xmlns:xlink="http://www.w3.org/1999/xlink" viewBox="0 0 300 300" shape-rendering="geometricPrecision" text-rendering="geometricPrecision"><g transform="translate(-30.036949-.31744)"><path d="M156.861146,236.605574c12.573727.2938,14.140786-6.077243,23.037541-6.077243c6.495485,0,9.170374,7.321979,21.823797,6.371043c66.461371-6.856975,88.178368-155.522129,0-141.357624-6.59505,1.101558-18.345712,7.930894-22.193987,13.009814-4.692353-4.816735-16.038233-10.128508-22.667351-11.908256-85.36542-20.388329-65.40003,134.232,0,139.962266Z" fill="#ea3434" stroke-width="0.6"/><path d="M217.057751,63.508758c-.098233,36.861743-36.943484,50.138743-43.751515,45.042806-8.968736-22.416136,21.794619-41.142309,43.751515-45.042806Z" transform="translate(6.319798 0.141545)" fill="#2a951c" stroke-width="0.6"/><path d="M217.057751,63.508758c-.098233,36.861743-36.943484,50.138743-43.751515,45.042806-8.968736-22.416136,21.794619-41.142309,43.751515-45.042806Z" transform="matrix(0-1 1 0 71.347123 282.539596)" fill="#2a951c" stroke-width="0.6"/><ellipse rx="7.42645" ry="11.30744" transform="matrix(1.240239 0.344263-.408995 1.473443 238.312012 136.881231)" fill="#fff" stroke-width="0"/></g></svg>
