<svg id="eOL0pTc7NWJ1" xmlns="http://www.w3.org/2000/svg" xmlns:xlink="http://www.w3.org/1999/xlink" viewBox="0 0 300 300" shape-rendering="geometricPrecision" text-rendering="geometricPrecision"><path d="M129.444504,280.463358c8.550653,6.880914,26.13152,12.52103,42.507,0l12.042103-99.020457l5.243896-43.119812c2.673981-8.56192,4.615185-30.2339,5.271155-43.34396c9.506898-112.005994-95.653798-129.065438-91.15278-.000001.703712,18.568953,7.666695,61.83491,12.387263,88.070615l6.868271,48.831848l6.833092,48.581767Z" transform="translate(0 0.000001)" fill="#017007" stroke-width="0.6"/><g><path d="M57.49081,157.72124c4.802378-44.093194,38.029499-44.290619,38.22534,0-1.326246,27.224305,5.863165,48.462835,20.965619,23.432625l8.107215,48.102808c-31.080872,9.213962-68.937571-6.745353-67.298174-71.535433Z" transform="translate(-.540481 1.621442)" fill="#017007" stroke-width="0.6"/><path d="M188.362909,137.324628c14.692101,7.230872,24.087124-12.895791,22.337888-34.417113-2.606228-38.150306,33.173596-48.557126,34.30464,0c3.353215,45.105192-31.125662,84.43375-62.71334,84.926271" transform="translate(0 0.000001)" fill="#017007" stroke-width="0.6"/></g></svg>
