<svg id="e1q78WF2Pkx1" xmlns="http://www.w3.org/2000/svg" xmlns:xlink="http://www.w3.org/1999/xlink" viewBox="0 0 300 300" shape-rendering="geometricPrecision" text-rendering="geometricPrecision"><g transform="translate(-11.074626-11.925372)"><ellipse rx="57.911908" ry="13.866232" transform="translate(156.797173 207.449701)" fill="#070707" stroke-width="0"/><g transform="translate(.000001 0)"><g transform="translate(.000001 0)"><path d="M214.285265,207.449701l.226029-13.763172c-2.114667,17.678971-113.342147,17.754164-115.626029-.10306v13.866232c-.046171,18.389229,115.578304,18.254256,115.4,0Z" transform="translate(.15299 0)" fill="#f60a0a" stroke-width="0.5"/><g><path d="M175.869892,206.59753l-.100654,14.108443c-8.492384,1.233492-25.266336.936937-33.74891.138802l.069682-13.949707c8.43677.539256,25.331199.462703,33.779882-.297538Z" transform="translate(0 0.000001)" fill="#fff" stroke-width="0.6"/><path d="M98.855864,193.366473l-.186681,14.391626c.698941,4.349832,7.392817,7.508163,14.458036,9.07954l.070515-14.175543c-6.407433-1.404089-14.34187-5.510283-14.34187-9.295623Z" transform="translate(0 0.000003)" fill="#fff" stroke-width="0.6"/><path d="M201.224128,202.49924l-.123556,14.338402c5.653607-1.066884,14.589307-5.670041,13.726339-9.733222l.124785-13.476769c.211404,2.919467-7.518047,7.242749-13.727568,8.871589Z" transform="translate(-.124785 0)" fill="#fff" stroke-width="0.6"/></g></g><ellipse rx="57.911908" ry="13.866232" transform="translate(156.797173 193.583469)" fill="#f60a0a" stroke-width="0"/><ellipse rx="57.911908" ry="13.866232" transform="matrix(.750025 0 0 0.63038 156.800277 193.58348)" fill="#fff" stroke-width="0"/><ellipse rx="57.911908" ry="13.866232" transform="matrix(.697014 0 0 0.52249 156.800057 193.583478)" fill="#f60a0a" stroke-width="0"/><g transform="translate(.000001 0)"><path d="M117.004961,198.650868l-3.813677,4.057707c-6.552625-1.38063-14.474821-5.084652-14.328107-9.04746l12.990619-.423336c-1.161225,1.05619.510207,3.605359,5.151165,5.413089Z" transform="matrix(1.006169 0 0 1.005321-.666595-1.053536)" fill="#fff" stroke-width="0.6"/><path d="M142.102202,207.215271c8.495987.952051,25.395965.693025,33.831179-.40016l-3.418214-4.106009c-8.281932.538724-22.084965.629013-26.979589.118219l-3.433376,4.38795Z" transform="translate(-.073132-.073134)" fill="#fff" stroke-width="0.6"/><path d="M201.081911,202.671109l-5.481306-4.050371c2.915558-1.090758,7.091229-3.0689,5.20902-6.356573l12.2916-1.829201c3.174488,3.067109,3.218918,8.045448-12.019314,12.236145Z" transform="translate(0 0.000001)" fill="#fff" stroke-width="0.6"/><path d="M122.112101,182.261429l9.201703,3.528824c4.61487-.691778,13.575266-1.463072,17.944505-1.459602l-.109774-4.504055c-7.077657-.034794-20.096072,1.06023-27.036434,2.434833Z" transform="translate(.000003 0.000002)" fill="#fff" stroke-width="0.6"/><path d="M169.525064,184.559801l.419272-4.425648c5.485296.027504,17.355408,1.389415,23.550921,2.736609l-6.67776,3.620713c-3.798868-.813824-13.242251-1.841234-17.292433-1.931674Z" transform="translate(.000004-.055759)" fill="#fff" stroke-width="0.6"/></g></g></g><g transform="translate(-7.074626-24.925372)"><ellipse rx="57.911908" ry="13.866232" transform="translate(156.797173 207.449701)" fill="#070707" stroke-width="0"/><g transform="translate(.000001 0)"><g transform="translate(.000001 0)"><path d="M214.285265,207.449701l.226029-13.763172c-2.114667,17.678971-113.342147,17.754164-115.626029-.10306v13.866232c-.046171,18.389229,115.578304,18.254256,115.4,0Z" transform="translate(.15299 0)" fill="#f60a0a" stroke-width="0.5"/><g><path d="M175.869892,206.59753l-.100654,14.108443c-8.492384,1.233492-25.266336.936937-33.74891.138802l.069682-13.949707c8.43677.539256,25.331199.462703,33.779882-.297538Z" transform="translate(0 0.000001)" fill="#fff" stroke-width="0.6"/><path d="M98.855864,193.366473l-.186681,14.391626c.698941,4.349832,7.392817,7.508163,14.458036,9.07954l.070515-14.175543c-6.407433-1.404089-14.34187-5.510283-14.34187-9.295623Z" transform="translate(0 0.000003)" fill="#fff" stroke-width="0.6"/><path d="M201.224128,202.49924l-.123556,14.338402c5.653607-1.066884,14.589307-5.670041,13.726339-9.733222l.124785-13.476769c.211404,2.919467-7.518047,7.242749-13.727568,8.871589Z" transform="translate(-.124785 0)" fill="#fff" stroke-width="0.6"/></g></g><ellipse rx="57.911908" ry="13.866232" transform="translate(156.797173 193.583469)" fill="#f60a0a" stroke-width="0"/><ellipse rx="57.911908" ry="13.866232" transform="matrix(.750025 0 0 0.63038 156.800277 193.58348)" fill="#fff" stroke-width="0"/><ellipse rx="57.911908" ry="13.866232" transform="matrix(.697014 0 0 0.52249 156.800057 193.583478)" fill="#f60a0a" stroke-width="0"/><g transform="translate(.000001 0)"><path d="M117.004961,198.650868l-3.813677,4.057707c-6.552625-1.38063-14.474821-5.084652-14.328107-9.04746l12.990619-.423336c-1.161225,1.05619.510207,3.605359,5.151165,5.413089Z" transform="matrix(1.006169 0 0 1.005321-.666595-1.053536)" fill="#fff" stroke-width="0.6"/><path d="M142.102202,207.215271c8.495987.952051,25.395965.693025,33.831179-.40016l-3.418214-4.106009c-8.281932.538724-22.084965.629013-26.979589.118219l-3.433376,4.38795Z" transform="translate(-.073132-.073134)" fill="#fff" stroke-width="0.6"/><path d="M201.081911,202.671109l-5.481306-4.050371c2.915558-1.090758,7.091229-3.0689,5.20902-6.356573l12.2916-1.829201c3.174488,3.067109,3.218918,8.045448-12.019314,12.236145Z" transform="translate(0 0.000001)" fill="#fff" stroke-width="0.6"/><path d="M122.112101,182.261429l9.201703,3.528824c4.61487-.691778,13.575266-1.463072,17.944505-1.459602l-.109774-4.504055c-7.077657-.034794-20.096072,1.06023-27.036434,2.434833Z" transform="translate(.000003 0.000002)" fill="#fff" stroke-width="0.6"/><path d="M169.525064,184.559801l.419272-4.425648c5.485296.027504,17.355408,1.389415,23.550921,2.736609l-6.67776,3.620713c-3.798868-.813824-13.242251-1.841234-17.292433-1.931674Z" transform="translate(.000004-.055759)" fill="#fff" stroke-width="0.6"/></g></g></g><g transform="translate(-14.074626-37.925372)"><ellipse rx="57.911908" ry="13.866232" transform="translate(156.797173 207.449701)" fill="#070707" stroke-width="0"/><g transform="translate(.000001 0)"><g transform="translate(.000001 0)"><path d="M214.285265,207.449701l.226029-13.763172c-2.114667,17.678971-113.342147,17.754164-115.626029-.10306v13.866232c-.046171,18.389229,115.578304,18.254256,115.4,0Z" transform="translate(.15299 0)" fill="#f60a0a" stroke-width="0.5"/><g><path d="M175.869892,206.59753l-.100654,14.108443c-8.492384,1.233492-25.266336.936937-33.74891.138802l.069682-13.949707c8.43677.539256,25.331199.462703,33.779882-.297538Z" transform="translate(0 0.000001)" fill="#fff" stroke-width="0.6"/><path d="M98.855864,193.366473l-.186681,14.391626c.698941,4.349832,7.392817,7.508163,14.458036,9.07954l.070515-14.175543c-6.407433-1.404089-14.34187-5.510283-14.34187-9.295623Z" transform="translate(0 0.000003)" fill="#fff" stroke-width="0.6"/><path d="M201.224128,202.49924l-.123556,14.338402c5.653607-1.066884,14.589307-5.670041,13.726339-9.733222l.124785-13.476769c.211404,2.919467-7.518047,7.242749-13.727568,8.871589Z" transform="translate(-.124785 0)" fill="#fff" stroke-width="0.6"/></g></g><ellipse rx="57.911908" ry="13.866232" transform="translate(156.797173 193.583469)" fill="#f60a0a" stroke-width="0"/><ellipse rx="57.911908" ry="13.866232" transform="matrix(.750025 0 0 0.63038 156.800277 193.58348)" fill="#fff" stroke-width="0"/><ellipse rx="57.911908" ry="13.866232" transform="matrix(.697014 0 0 0.52249 156.800057 193.583478)" fill="#f60a0a" stroke-width="0"/><g transform="translate(.000001 0)"><path d="M117.004961,198.650868l-3.813677,4.057707c-6.552625-1.38063-14.474821-5.084652-14.328107-9.04746l12.990619-.423336c-1.161225,1.05619.510207,3.605359,5.151165,5.413089Z" transform="matrix(1.006169 0 0 1.005321-.666595-1.053536)" fill="#fff" stroke-width="0.6"/><path d="M142.102202,207.215271c8.495987.952051,25.395965.693025,33.831179-.40016l-3.418214-4.106009c-8.281932.538724-22.084965.629013-26.979589.118219l-3.433376,4.38795Z" transform="translate(-.073132-.073134)" fill="#fff" stroke-width="0.6"/><path d="M201.081911,202.671109l-5.481306-4.050371c2.915558-1.090758,7.091229-3.0689,5.20902-6.356573l12.2916-1.829201c3.174488,3.067109,3.218918,8.045448-12.019314,12.236145Z" transform="translate(0 0.000001)" fill="#fff" stroke-width="0.6"/><path d="M122.112101,182.261429l9.201703,3.528824c4.61487-.691778,13.575266-1.463072,17.944505-1.459602l-.109774-4.504055c-7.077657-.034794-20.096072,1.06023-27.036434,2.434833Z" transform="translate(.000003 0.000002)" fill="#fff" stroke-width="0.6"/><path d="M169.525064,184.559801l.419272-4.425648c5.485296.027504,17.355408,1.389415,23.550921,2.736609l-6.67776,3.620713c-3.798868-.813824-13.242251-1.841234-17.292433-1.931674Z" transform="translate(.000004-.055759)" fill="#fff" stroke-width="0.6"/></g></g></g><g transform="translate(-20.074626-51.925372)"><ellipse rx="57.911908" ry="13.866232" transform="translate(156.797173 207.449701)" fill="#070707" stroke-width="0"/><g transform="translate(.000001 0)"><g transform="translate(.000001 0)"><path d="M214.285265,207.449701l.226029-13.763172c-2.114667,17.678971-113.342147,17.754164-115.626029-.10306v13.866232c-.046171,18.389229,115.578304,18.254256,115.4,0Z" transform="translate(.15299 0)" fill="#f60a0a" stroke-width="0.5"/><g><path d="M175.869892,206.59753l-.100654,14.108443c-8.492384,1.233492-25.266336.936937-33.74891.138802l.069682-13.949707c8.43677.539256,25.331199.462703,33.779882-.297538Z" transform="translate(0 0.000001)" fill="#fff" stroke-width="0.6"/><path d="M98.855864,193.366473l-.186681,14.391626c.698941,4.349832,7.392817,7.508163,14.458036,9.07954l.070515-14.175543c-6.407433-1.404089-14.34187-5.510283-14.34187-9.295623Z" transform="translate(0 0.000003)" fill="#fff" stroke-width="0.6"/><path d="M201.224128,202.49924l-.123556,14.338402c5.653607-1.066884,14.589307-5.670041,13.726339-9.733222l.124785-13.476769c.211404,2.919467-7.518047,7.242749-13.727568,8.871589Z" transform="translate(-.124785 0)" fill="#fff" stroke-width="0.6"/></g></g><ellipse rx="57.911908" ry="13.866232" transform="translate(156.797173 193.583469)" fill="#f60a0a" stroke-width="0"/><ellipse rx="57.911908" ry="13.866232" transform="matrix(.750025 0 0 0.63038 156.800277 193.58348)" fill="#fff" stroke-width="0"/><ellipse rx="57.911908" ry="13.866232" transform="matrix(.697014 0 0 0.52249 156.800057 193.583478)" fill="#f60a0a" stroke-width="0"/><g transform="translate(.000001 0)"><path d="M117.004961,198.650868l-3.813677,4.057707c-6.552625-1.38063-14.474821-5.084652-14.328107-9.04746l12.990619-.423336c-1.161225,1.05619.510207,3.605359,5.151165,5.413089Z" transform="matrix(1.006169 0 0 1.005321-.666595-1.053536)" fill="#fff" stroke-width="0.6"/><path d="M142.102202,207.215271c8.495987.952051,25.395965.693025,33.831179-.40016l-3.418214-4.106009c-8.281932.538724-22.084965.629013-26.979589.118219l-3.433376,4.38795Z" transform="translate(-.073132-.073134)" fill="#fff" stroke-width="0.6"/><path d="M201.081911,202.671109l-5.481306-4.050371c2.915558-1.090758,7.091229-3.0689,5.20902-6.356573l12.2916-1.829201c3.174488,3.067109,3.218918,8.045448-12.019314,12.236145Z" transform="translate(0 0.000001)" fill="#fff" stroke-width="0.6"/><path d="M122.112101,182.261429l9.201703,3.528824c4.61487-.691778,13.575266-1.463072,17.944505-1.459602l-.109774-4.504055c-7.077657-.034794-20.096072,1.06023-27.036434,2.434833Z" transform="translate(.000003 0.000002)" fill="#fff" stroke-width="0.6"/><path d="M169.525064,184.559801l.419272-4.425648c5.485296.027504,17.355408,1.389415,23.550921,2.736609l-6.67776,3.620713c-3.798868-.813824-13.242251-1.841234-17.292433-1.931674Z" transform="translate(.000004-.055759)" fill="#fff" stroke-width="0.6"/></g></g></g><g transform="translate(-12.074626-65.925372)"><ellipse rx="57.911908" ry="13.866232" transform="translate(156.797173 207.449701)" fill="#070707" stroke-width="0"/><g transform="translate(.000001 0)"><g transform="translate(.000001 0)"><path d="M214.285265,207.449701l.226029-13.763172c-2.114667,17.678971-113.342147,17.754164-115.626029-.10306v13.866232c-.046171,18.389229,115.578304,18.254256,115.4,0Z" transform="translate(.15299 0)" fill="#f60a0a" stroke-width="0.5"/><g><path d="M175.869892,206.59753l-.100654,14.108443c-8.492384,1.233492-25.266336.936937-33.74891.138802l.069682-13.949707c8.43677.539256,25.331199.462703,33.779882-.297538Z" transform="translate(0 0.000001)" fill="#fff" stroke-width="0.6"/><path d="M98.855864,193.366473l-.186681,14.391626c.698941,4.349832,7.392817,7.508163,14.458036,9.07954l.070515-14.175543c-6.407433-1.404089-14.34187-5.510283-14.34187-9.295623Z" transform="translate(0 0.000003)" fill="#fff" stroke-width="0.6"/><path d="M201.224128,202.49924l-.123556,14.338402c5.653607-1.066884,14.589307-5.670041,13.726339-9.733222l.124785-13.476769c.211404,2.919467-7.518047,7.242749-13.727568,8.871589Z" transform="translate(-.124785 0)" fill="#fff" stroke-width="0.6"/></g></g><ellipse rx="57.911908" ry="13.866232" transform="translate(156.797173 193.583469)" fill="#f60a0a" stroke-width="0"/><ellipse rx="57.911908" ry="13.866232" transform="matrix(.750025 0 0 0.63038 156.800277 193.58348)" fill="#fff" stroke-width="0"/><ellipse rx="57.911908" ry="13.866232" transform="matrix(.697014 0 0 0.52249 156.800057 193.583478)" fill="#f60a0a" stroke-width="0"/><g transform="translate(.000001 0)"><path d="M117.004961,198.650868l-3.813677,4.057707c-6.552625-1.38063-14.474821-5.084652-14.328107-9.04746l12.990619-.423336c-1.161225,1.05619.510207,3.605359,5.151165,5.413089Z" transform="matrix(1.006169 0 0 1.005321-.666595-1.053536)" fill="#fff" stroke-width="0.6"/><path d="M142.102202,207.215271c8.495987.952051,25.395965.693025,33.831179-.40016l-3.418214-4.106009c-8.281932.538724-22.084965.629013-26.979589.118219l-3.433376,4.38795Z" transform="translate(-.073132-.073134)" fill="#fff" stroke-width="0.6"/><path d="M201.081911,202.671109l-5.481306-4.050371c2.915558-1.090758,7.091229-3.0689,5.20902-6.356573l12.2916-1.829201c3.174488,3.067109,3.218918,8.045448-12.019314,12.236145Z" transform="translate(0 0.000001)" fill="#fff" stroke-width="0.6"/><path d="M122.112101,182.261429l9.201703,3.528824c4.61487-.691778,13.575266-1.463072,17.944505-1.459602l-.109774-4.504055c-7.077657-.034794-20.096072,1.06023-27.036434,2.434833Z" transform="translate(.000003 0.000002)" fill="#fff" stroke-width="0.6"/><path d="M169.525064,184.559801l.419272-4.425648c5.485296.027504,17.355408,1.389415,23.550921,2.736609l-6.67776,3.620713c-3.798868-.813824-13.242251-1.841234-17.292433-1.931674Z" transform="translate(.000004-.055759)" fill="#fff" stroke-width="0.6"/></g></g></g><g transform="matrix(.299448 0.954113-.954113 0.299448 358.085307-57.055269)"><ellipse rx="57.911908" ry="13.866232" transform="translate(156.797173 207.449701)" fill="#070707" stroke-width="0"/><g transform="translate(.000001 0)"><g transform="translate(.000001 0)"><path d="M214.285265,207.449701l.226029-13.763172c-2.114667,17.678971-113.342147,17.754164-115.626029-.10306v13.866232c-.046171,18.389229,115.578304,18.254256,115.4,0Z" transform="translate(.15299 0)" fill="#f60a0a" stroke-width="0.5"/><g><path d="M175.869892,206.59753l-.100654,14.108443c-8.492384,1.233492-25.266336.936937-33.74891.138802l.069682-13.949707c8.43677.539256,25.331199.462703,33.779882-.297538Z" transform="translate(0 0.000001)" fill="#fff" stroke-width="0.6"/><path d="M98.855864,193.366473l-.186681,14.391626c.698941,4.349832,7.392817,7.508163,14.458036,9.07954l.070515-14.175543c-6.407433-1.404089-14.34187-5.510283-14.34187-9.295623Z" transform="translate(0 0.000003)" fill="#fff" stroke-width="0.6"/><path d="M201.224128,202.49924l-.123556,14.338402c5.653607-1.066884,14.589307-5.670041,13.726339-9.733222l.124785-13.476769c.211404,2.919467-7.518047,7.242749-13.727568,8.871589Z" transform="translate(-.124785 0)" fill="#fff" stroke-width="0.6"/></g></g><ellipse rx="57.911908" ry="13.866232" transform="translate(156.797173 193.583469)" fill="#f60a0a" stroke-width="0"/><ellipse rx="57.911908" ry="13.866232" transform="matrix(.750025 0 0 0.63038 156.800277 193.58348)" fill="#fff" stroke-width="0"/><ellipse rx="57.911908" ry="13.866232" transform="matrix(.697014 0 0 0.52249 156.800057 193.583478)" fill="#f60a0a" stroke-width="0"/><g transform="translate(.000001 0)"><path d="M117.004961,198.650868l-3.813677,4.057707c-6.552625-1.38063-14.474821-5.084652-14.328107-9.04746l12.990619-.423336c-1.161225,1.05619.510207,3.605359,5.151165,5.413089Z" transform="matrix(1.006169 0 0 1.005321-.666595-1.053536)" fill="#fff" stroke-width="0.6"/><path d="M142.102202,207.215271c8.495987.952051,25.395965.693025,33.831179-.40016l-3.418214-4.106009c-8.281932.538724-22.084965.629013-26.979589.118219l-3.433376,4.38795Z" transform="translate(-.073132-.073134)" fill="#fff" stroke-width="0.6"/><path d="M201.081911,202.671109l-5.481306-4.050371c2.915558-1.090758,7.091229-3.0689,5.20902-6.356573l12.2916-1.829201c3.174488,3.067109,3.218918,8.045448-12.019314,12.236145Z" transform="translate(0 0.000001)" fill="#fff" stroke-width="0.6"/><path d="M122.112101,182.261429l9.201703,3.528824c4.61487-.691778,13.575266-1.463072,17.944505-1.459602l-.109774-4.504055c-7.077657-.034794-20.096072,1.06023-27.036434,2.434833Z" transform="translate(.000003 0.000002)" fill="#fff" stroke-width="0.6"/><path d="M169.525064,184.559801l.419272-4.425648c5.485296.027504,17.355408,1.389415,23.550921,2.736609l-6.67776,3.620713c-3.798868-.813824-13.242251-1.841234-17.292433-1.931674Z" transform="translate(.000004-.055759)" fill="#fff" stroke-width="0.6"/></g></g></g></svg>
