<svg cache-id="c26429fc09364697b273eafe0a911177" id="eEfYoOMvNu51" xmlns="http://www.w3.org/2000/svg" xmlns:xlink="http://www.w3.org/1999/xlink" viewBox="0 0 300 300" shape-rendering="geometricPrecision" text-rendering="geometricPrecision"><g transform="translate(-9.663908-11.626167)"><path d="M86.231094,264.886224h143.071263c-.51591-64.217453,12.265813-121.885445,46.191579-41.286279-13.683301-130.51986-64.822404-98.979367-86.251533-31.475677C192.953422,77.458945,149.637218,20.26227,115.662896,88.704183C103.940003,112.320172,109.098473,129.145488,105.852295,150c34.01334-82.839531,30.687744-17.000854,27.387927,42.124268-67.447881-94.018259-106.603691,81.933249-79.302357,31.475677c15.969228-29.513886,36.937249-36.41566,32.293229,41.286279Z" transform="translate(-.817549-.408775)" fill="#7223ca" stroke-width="0.6"/><ellipse rx="30" ry="30" transform="matrix(.434098 0 0 0.434098 44.651403 232.184221)" fill="#d9ff00" stroke-width="0"/><ellipse rx="30" ry="30" transform="matrix(.434098 0 0 0.434098 107.193983 150)" fill="#d9ff00" stroke-width="0"/><ellipse rx="30" ry="30" transform="matrix(.434098 0 0 0.434098 274.676387 219.161281)" fill="#d9ff00" stroke-width="0"/></g></svg>
