<svg id="en0GQ5AkhJq1" xmlns="http://www.w3.org/2000/svg" xmlns:xlink="http://www.w3.org/1999/xlink" viewBox="0 0 300 300" shape-rendering="geometricPrecision" text-rendering="geometricPrecision"><path d="M98.277566,183.891502c28.069402,20.645238,87.192578,17.696177,118.0308.000006l-7.281996,64.773048c-.99558,22.018149-101.645666,21.85789-102.290402,0l-8.458402-64.773054Z" transform="translate(0 0.000002)" fill="#9c7b3c" stroke="#fff" stroke-width="0.6"/><g><path d="M215.723182,184.438866c3.830257-10.742216-5.107133-23.291967-19.086583-23.291967c2.029553-12.256791-6.975565-23.670716-21.591019-19.6563-2.477855-5.677356-14.472217-15.210082-35.50523-12.413377-3.765016,1.415877,5.918472,7.891625,0,12.413377-10.932111-2.41148-21.386117,7.851312-21.591019,19.6563-20.802295-1.417706-22.077761,15.632194-19.168324,23.59338" transform="translate(.000001 0.000001)" fill="#fff" stroke="#3f5787" stroke-width="0.6"/><path d="M117.949332,161.1469c11.774957,5.943794,34.993797,11.273078,57.096248,0" transform="translate(.000001 0)" fill="none" stroke="#3f5787" stroke-width="0.6"/><path d="M139.540351,141.4906c10.612327,5.671712,19.469692,3.507067,22.332639,0" fill="none" stroke="#3f5787" stroke-width="0.6"/><path d="M98.277565,184.438866c11.378351,9.945018,41.529284,15.74446,59.015401,13.870253c16.151406.915757,46.065646-6.033741,59.015399-14.41761" transform="translate(.000001 0.000001)" fill="#fff" stroke="#3f5787" stroke-width="0.6"/><path d="M157.114087,198.309119c25.04707-8.485003,48.474922-26.651026,39.522513-37.162219" transform="translate(.000001 0)" fill="none" stroke="#3f5787" stroke-width="0.6"/></g></svg>
