<svg id="e1x4OAzhIHG1" xmlns="http://www.w3.org/2000/svg" xmlns:xlink="http://www.w3.org/1999/xlink" viewBox="0 0 300 300" shape-rendering="geometricPrecision" text-rendering="geometricPrecision"><g transform="translate(-.000008-23.150074)"><rect width="198.664669" height="76.849707" rx="0" ry="0" transform="matrix(1 0 0 1.393616 50.667666 150)" fill="#291797" stroke-width="0"/><g transform="translate(-10.193275 23.150067)"><rect width="30" height="30" rx="0" ry="0" transform="matrix(1 0 0 3.297781 101.348728 135.015488)" fill="#2763da" stroke-width="0"/><rect width="30" height="30" rx="0" ry="0" transform="matrix(1 0 0 3.297781 189.037848 135.015477)" fill="#2763da" stroke-width="0"/></g><rect width="221.126857" height="50.279329" rx="0" ry="0" transform="matrix(.961273 0 0 0.641467 43.718362 127.128947)" fill="#0a3791" stroke-width="0"/></g><g transform="translate(-.000008-23.150074)"><ellipse rx="24.117727" ry="13.489576" transform="matrix(1.213558 0.354216-.288062 0.986914 119.784619 118.778803)" fill="#dd4eef" stroke-width="0"/><ellipse rx="21.665077" ry="13.489576" transform="matrix(1.35464-.581251 0.415792 0.969027 178.205482 114.865786)" fill="#dd4eef" stroke-width="0"/><ellipse rx="30" ry="30" transform="matrix(.483712 0 0 0.299766 146.321025 126.311487)" fill="#dd4eef" stroke="#000"/></g></svg>
