<svg id="eHEvJXyz9tF1" xmlns="http://www.w3.org/2000/svg" xmlns:xlink="http://www.w3.org/1999/xlink" viewBox="0 0 300 300" shape-rendering="geometricPrecision" text-rendering="geometricPrecision"><g transform="matrix(.917268-.39827 0.39827 0.917268-29.19794 63.201889)"><ellipse rx="23.91334" ry="33.110778" transform="matrix(.469806-.287636 0.722223 1.179631 114.85201 60.90748)" fill="#fff" stroke-width="0"/><ellipse rx="30" ry="30" transform="matrix(.215712-.130965 0.576389 0.949368 116.93394 59.992459)" fill="#ef91da" stroke-width="0"/><ellipse rx="20.438752" ry="40.673117" transform="matrix(.579087-.120589 0.210894 1.012747 140.400472 60.135213)" fill="#fff" stroke-width="0"/></g><ellipse rx="87.477858" ry="40.673116" transform="matrix(.854546-.130742 0.215113 1.406003 137.327975 189.876007)" fill="#fff" stroke-width="0"/><ellipse rx="48.235455" ry="33.723941" transform="matrix(.989949-.141422 0.157697 1.103877 158.993053 123.245674)" fill="#fff" stroke-width="0"/><ellipse rx="30" ry="30" transform="matrix(.029274-.707935 2.200343 0.090987 148.773673 237.498298)" fill="#fff" stroke-width="0"/><ellipse rx="30" ry="30" transform="matrix(.134863-.676548 0.639019 0.127382 60.069491 190.897941)" fill="#fff" stroke-width="0"/><ellipse rx="30" ry="30" transform="matrix(.599658 0.16933-.278247 0.985372 102.173323 211.336696)" fill="#fff" stroke-width="0"/><ellipse rx="30" ry="30" transform="matrix(.62085 0.052986-.087068 1.020195 192.103831 210.92792)" fill="#fff" stroke-width="0"/></svg>
