<svg id="ecoUthZLg1G1" xmlns="http://www.w3.org/2000/svg" xmlns:xlink="http://www.w3.org/1999/xlink" viewBox="0 0 300 300" shape-rendering="geometricPrecision" text-rendering="geometricPrecision"><path d="M77.45186,104.9201l27.67761-27.30951c17.44192,16.91857,25.18972,12.33331,25.18973-12.33331h39.36163c0,24.66662,7.73265,29.25188,25.1746,12.33331l27.83288,27.83288c-17.44195,17.44193-12.33332,24.87572,12.33331,24.87572v39.36163c-19.277112,0-26.609153,4.757978-20.567747,15.162294c1.689063,2.908851,4.42347,6.259052,8.234437,10.070016l-5.435884,5.435884L194.85543,222.74601c-17.44194-17.44194-24.59615-12.75952-24.59615,11.9071h-39.36163c0-24.66662-8.32626-29.34903-25.61291-12.33331L77.45186,194.91313c17.28665-17.44194,12.74086-25.23231-11.92576-25.23231v-39.36163c24.66662,0,29.21241-7.95715,11.92576-25.39908v-.00001ZM150,185.73282c19.73469,0,35.73282-15.99813,35.73282-35.73282s-15.99813-35.73282-35.73282-35.73282-35.73282,15.99813-35.73282,35.73282s15.99813,35.73282,35.73282,35.73282Z" fill="#48494c" stroke="#3f5787" stroke-width="0.6"/></svg>
