<svg id="e2BktNzTegI1" xmlns="http://www.w3.org/2000/svg" xmlns:xlink="http://www.w3.org/1999/xlink" viewBox="0 0 300 300" shape-rendering="geometricPrecision" text-rendering="geometricPrecision"><polygon points="4.359871,-100.561983 35.26157,-34.726061 104.359871,-24.168781 54.35987,27.077338 66.163269,99.438017 4.359871,65.273938 -57.443527,99.438017 -45.640128,27.077338 -95.640129,-24.168781 -26.541828,-34.726061 4.359871,-100.561983" transform="translate(145.640129 150.561983)" fill="#ffd700" stroke-width="0"/><ellipse rx="30" ry="30" transform="matrix(.34231 0 0 0.34231 150 50)" fill="#ffd700" stroke-width="0"/><ellipse rx="30" ry="30" transform="matrix(.34231 0 0 0.34231 50 127.848959)" fill="#ffd700" stroke-width="0"/><ellipse rx="30" ry="30" transform="matrix(.34231 0 0 0.34231 88.675584 250)" fill="#ffd700" stroke-width="0"/><ellipse rx="30" ry="30" transform="matrix(.34231 0 0 0.34231 212.793264 250)" fill="#ffd700" stroke-width="0"/><ellipse rx="30" ry="30" transform="matrix(.34231 0 0 0.34231 250 127.848959)" fill="#ffd700" stroke-width="0"/></svg>
